<svg xmlns="http://www.w3.org/2000/svg" viewBox="0 0 500 360.4">
  <path d="M499.7 82.2c0-7.5-4.1-14.4-10.6-18L378.7 2.6C372.2-1 364.3-0.9 358 2.9l-97 57.8c-6.4 3.8-14.4 3.9-20.9 0.2L139.9 3.5c-6.5-3.7-14.5-3.7-20.9 0.2L10.1 68.5C3.8 72.3 0 79 0 86.4l0.3 123.3c0 7.5 4 14.3 10.6 18l230.8 130c6.3 3.6 14.1 3.6 20.4-0.1L489.5 228c6.5-3.7 10.5-10.6 10.5-18.1L499.7 82.2zM460.1 102.2l-75.6 43.9c-6.2 3.6-13.9-0.9-13.9-8l-0.2-87.4c0-7.1 7.7-11.6 13.9-8L460 86.1C466.2 89.7 466.2 98.6 460.1 102.2z"/>
</svg>